<svg width="32" height="32" viewBox="0 0 32 32" fill="none" xmlns="http://www.w3.org/2000/svg">
<rect x="0.5" y="0.5" width="31" height="31" rx="0.5" fill="white"/>
<path d="M12.8381 8.10166C13.8463 6.35549 16.0791 5.75721 17.8253 6.76536C19.5714 7.77351 20.1697 10.0063 19.1616 11.7525L12.1481 23.9001C11.14 25.6463 8.90716 26.2446 7.16099 25.2364C5.41482 24.2283 4.81654 21.9955 5.82469 20.2493L12.8381 8.10166Z" stroke="black" stroke-width="1.5"/>
<path d="M19.1608 8.10093C18.1527 6.35476 15.9199 5.75648 14.1737 6.76463C12.4275 7.77278 11.8292 10.0056 12.8374 11.7518L19.8508 23.8994C20.859 25.6456 23.0918 26.2439 24.838 25.2357C26.5841 24.2276 27.1824 21.9947 26.1743 20.2486L19.1608 8.10093Z" stroke="black" stroke-width="1.5"/>
<rect x="0.5" y="0.5" width="31" height="31" rx="0.5" stroke="black"/>
</svg>
