<svg width="25" height="25" viewBox="0 0 25 25" fill="none" xmlns="http://www.w3.org/2000/svg">
<path d="M10.1937 19.3907C10.1937 21.4002 8.56466 23.0293 6.55511 23.0293C4.54557 23.0293 2.91651 21.4002 2.91651 19.3907L2.9165 5.6679C2.9165 3.65836 4.54556 2.0293 6.55511 2.0293C8.56466 2.0293 10.1937 3.65836 10.1937 5.66791L10.1937 19.3907Z" stroke="#BDBDBD" stroke-width="1.5"/>
<path d="M6.55512 23.0292C4.54557 23.0292 2.9165 21.4001 2.9165 19.3906C2.9165 17.381 4.54557 15.752 6.55511 15.752L17.5229 15.752C19.5325 15.752 21.1615 17.381 21.1615 19.3906C21.1615 21.4001 19.5325 23.0292 17.5229 23.0292L6.55512 23.0292Z" stroke="#BDBDBD" stroke-width="1.5"/>
</svg>
