<svg width="17" height="17" viewBox="0 0 17 17" fill="none" xmlns="http://www.w3.org/2000/svg">
<path fill-rule="evenodd" clip-rule="evenodd" d="M8.85463 1.12264C8.84598 1.17553 8.84149 1.22982 8.84149 1.28516V2.20754L8.53905 2.07281L3.76822 4.19812L8.53905 6.31824L8.8416 6.18378L8.84162 6.44429L8.84161 6.54686C8.84157 6.78558 8.92518 7.00477 9.06474 7.17673L9.03906 7.18815V13.762L14.0391 11.5377V7.54701H14.7636C14.8592 7.54701 14.9516 7.53361 15.0391 7.5086V11.8659C15.0376 12.0621 14.9215 12.2394 14.7422 12.3191L8.74219 14.9862C8.61287 15.0437 8.46525 15.0437 8.33593 14.9862L2.33593 12.3191C2.15664 12.2394 2.04055 12.0621 2.03906 11.8659V4.19812C2.0385 4 2.15493 3.82023 2.33593 3.73972L8.33593 1.07266C8.38704 1.04983 8.44162 1.03575 8.49739 1.03099C8.5812 1.02407 8.6654 1.03841 8.74219 1.07266L8.85463 1.12264ZM8.03906 7.18815L3.03906 4.96387V11.5377L8.03906 13.762V7.18815Z" fill="#B0B0B0"/>
<line x1="10.207" y1="1.66309" x2="14.3331" y2="1.66309" stroke="#B0B0B0" stroke-linecap="round"/>
<line x1="10.207" y1="3.97656" x2="14.3331" y2="3.97656" stroke="#B0B0B0" stroke-linecap="round"/>
<line x1="10.207" y1="6.25391" x2="14.3331" y2="6.25391" stroke="#B0B0B0" stroke-linecap="round"/>
</svg>
