<svg width="17" height="16" viewBox="0 0 17 16" fill="none" xmlns="http://www.w3.org/2000/svg">
<path d="M7.98859 1C4.43453 1 4.65646 2.54933 4.65646 2.54933L4.66043 4.15441H8.05199V4.63634H3.31331C3.31331 4.63634 1.03906 4.37707 1.03906 7.98193C1.03906 11.5868 3.02408 11.459 3.02408 11.459H4.20875V9.78616C4.20875 9.78616 4.14489 7.79075 6.16206 7.79075C8.17924 7.79075 9.52589 7.79075 9.52589 7.79075C9.52589 7.79075 11.4158 7.82146 11.4158 5.95466C11.4158 4.08786 11.4158 2.86795 11.4158 2.86795C11.4158 2.86795 11.7028 1 7.98859 1ZM6.11848 2.07935C6.45592 2.07935 6.72864 2.35351 6.72864 2.69271C6.72865 3.03191 6.45592 3.30607 6.11848 3.30607C5.78104 3.30607 5.50832 3.03191 5.50832 2.69271C5.50832 2.35351 5.78104 2.07935 6.11848 2.07935Z" fill="black"/>
<path fill-rule="evenodd" clip-rule="evenodd" d="M10.8833 13.4897L10.8806 12.384H7.48768V10.8252H12.7954L12.8204 10.8281C12.8204 10.8281 12.8221 10.8282 12.8232 10.8282C12.8299 10.8286 12.8434 10.8293 12.863 10.8293C12.9022 10.8293 12.9639 10.8268 13.0402 10.8154C13.1935 10.7923 13.3968 10.7347 13.5996 10.5971C13.9758 10.3419 14.5006 9.70382 14.5006 8.01807C14.5006 6.30986 14.0325 5.62032 13.6994 5.33931C13.5261 5.19316 13.3582 5.1295 13.2394 5.1012C13.1795 5.08693 13.1323 5.08175 13.1042 5.07991C13.0923 5.07913 13.084 5.07897 13.08 5.07895L13.0714 5.07951H12.4078V6.20829L12.4079 6.21112C12.408 6.21791 12.4081 6.22663 12.4081 6.23717C12.408 6.25821 12.4076 6.28657 12.4062 6.32122C12.4034 6.39031 12.3968 6.48554 12.3814 6.59844C12.3509 6.8215 12.2844 7.12817 12.1358 7.44196C11.9861 7.75828 11.748 8.09149 11.3731 8.34404C10.9953 8.59856 10.5132 8.74771 9.91606 8.74771H6.55262L6.55224 8.20925H9.91606C11.9332 8.20925 11.8694 6.21384 11.8694 6.21384V4.54105H13.054C13.054 4.54105 15.0391 4.41321 15.0391 8.01807C15.0391 11.6229 12.7648 11.3637 12.7648 11.3637H8.02614V11.8456H11.4177L11.4217 13.4507C11.4217 13.4507 11.6436 15 8.08953 15C4.37537 15 4.66231 13.132 4.66231 13.132H5.20077V13.1732L5.19619 13.203C5.196 13.2061 5.19575 13.2114 5.19566 13.2185C5.1954 13.2408 5.19678 13.2797 5.20566 13.3297C5.22304 13.4274 5.26923 13.5696 5.3953 13.7196C5.64166 14.0126 6.30759 14.4615 8.08953 14.4615C9.8085 14.4615 10.4677 14.0837 10.7083 13.8439C10.8258 13.7269 10.8635 13.6246 10.8771 13.5676C10.884 13.5386 10.8856 13.5175 10.8859 13.5077L10.8833 13.4897ZM6.54622 8.74768L6.54786 8.74771H6.55262L6.55224 8.20925C6.55224 8.20925 4.66231 8.17854 4.66231 10.0453V13.132H5.20077V10.0453C5.20077 9.67414 5.29308 9.43458 5.40238 9.27441C5.51418 9.11058 5.66772 8.9951 5.83935 8.91313C6.01307 8.83015 6.19376 8.78735 6.33597 8.76625C6.40573 8.7559 6.46273 8.75128 6.50023 8.74924C6.51888 8.74823 6.53243 8.74787 6.53999 8.74775L6.54622 8.74768Z" fill="black"/>
<path d="M9.34948 13.3073C9.34948 13.6465 9.62221 13.9206 9.95965 13.9206C10.2971 13.9206 10.5698 13.6465 10.5698 13.3073C10.5698 12.9681 10.2971 12.6939 9.95965 12.6939C9.62221 12.6939 9.34948 12.9681 9.34948 13.3073Z" fill="black"/>
</svg>
