<svg width="192" height="192" viewBox="0 0 192 192" fill="none" xmlns="http://www.w3.org/2000/svg">
<g clip-path="url(#clip0_2317_4792)">
<path fill-rule="evenodd" clip-rule="evenodd" d="M53.0805 143.428C64.3203 149.917 78.6927 146.066 85.182 134.826L116.749 80.1514C123.238 68.9115 119.387 54.5391 108.147 48.0498C96.9071 41.5604 82.5347 45.4115 76.0454 56.6514L44.4789 111.326C37.9895 122.566 41.8406 136.938 53.0805 143.428ZM139.714 143.429C128.474 149.918 114.101 146.067 107.612 134.827C101.123 123.587 104.974 109.215 116.214 102.725C127.453 96.2362 141.826 100.087 148.315 111.327C154.805 122.567 150.953 136.939 139.714 143.429Z" fill="white"/>
</g>
<defs>
<clipPath id="clip0_2317_4792">
<rect width="111" height="102" fill="white" transform="translate(40.897 44.7393)"/>
</clipPath>
</defs>
</svg>
