<svg xmlns="http://www.w3.org/2000/svg" xmlns:xlink="http://www.w3.org/1999/xlink" version="1.1" width="256" height="256" viewBox="0 0 256 256" xml:space="preserve">

<defs>
</defs>
<g style="stroke: none; stroke-width: 0; stroke-dasharray: none; stroke-linecap: butt; stroke-linejoin: miter; stroke-miterlimit: 10; fill: none; fill-rule: nonzero; opacity: 1;" transform="translate(1.4065934065934016 1.4065934065934016) scale(2.81 2.81)" >
	<path d="M 45 70.454 c -2.761 0 -5 -2.238 -5 -5 V 24.545 c 0 -2.761 2.239 -5 5 -5 c 2.762 0 5 2.239 5 5 v 40.909 C 50 68.216 47.762 70.454 45 70.454 z" style="stroke: none; stroke-width: 1; stroke-dasharray: none; stroke-linecap: butt; stroke-linejoin: miter; stroke-miterlimit: 10; fill: rgb(0,0,0); fill-rule: nonzero; opacity: 1;" transform=" matrix(1 0 0 1 0 0) " stroke-linecap="round" />
	<path d="M 65.454 50 H 24.545 c -2.761 0 -5 -2.238 -5 -5 c 0 -2.761 2.239 -5 5 -5 h 40.909 c 2.762 0 5 2.239 5 5 C 70.454 47.762 68.216 50 65.454 50 z" style="stroke: none; stroke-width: 1; stroke-dasharray: none; stroke-linecap: butt; stroke-linejoin: miter; stroke-miterlimit: 10; fill: rgb(0,0,0); fill-rule: nonzero; opacity: 1;" transform=" matrix(1 0 0 1 0 0) " stroke-linecap="round" />
	<path d="M 71.932 90 H 18.068 C 8.105 90 0 81.895 0 71.932 V 18.068 C 0 8.105 8.105 0 18.068 0 h 53.864 C 81.895 0 90 8.105 90 18.068 v 53.864 C 90 81.895 81.895 90 71.932 90 z M 18.068 10 C 13.619 10 10 13.619 10 18.068 v 53.864 C 10 76.381 13.619 80 18.068 80 h 53.864 C 76.381 80 80 76.381 80 71.932 V 18.068 C 80 13.619 76.381 10 71.932 10 H 18.068 z" style="stroke: none; stroke-width: 1; stroke-dasharray: none; stroke-linecap: butt; stroke-linejoin: miter; stroke-miterlimit: 10; fill: rgb(0,0,0); fill-rule: nonzero; opacity: 1;" transform=" matrix(1 0 0 1 0 0) " stroke-linecap="round" />
</g>
</svg>