<svg width="17" height="17" viewBox="0 0 17 17" fill="none" xmlns="http://www.w3.org/2000/svg">
<path fill-rule="evenodd" clip-rule="evenodd" d="M8.31256 1.08354C8.45489 1.01122 8.62321 1.01122 8.76554 1.08354L14.5156 4.00515C14.6834 4.09041 14.7891 4.26269 14.7891 4.45091V11.6076C14.7891 11.7958 14.6834 11.9681 14.5156 12.0534L8.76556 14.9751C8.62322 15.0474 8.4549 15.0474 8.31256 14.9751L2.56257 12.0534C2.39476 11.9681 2.28906 11.7958 2.28906 11.6076V4.45091C2.28906 4.26269 2.39477 4.09041 2.56257 4.00515L8.31256 1.08354ZM8.53905 2.09014L3.89284 4.45091L8.53906 6.81174L13.1853 4.45091L8.53905 2.09014ZM13.7891 5.26581L9.03906 7.67936V13.7144L13.7891 11.3008V5.26581ZM8.03906 13.7144V7.67936L3.28906 5.26581V11.3008L8.03906 13.7144Z" fill="#BDBDBD"/>
</svg>
