<svg width="25" height="25" viewBox="0 0 25 25" fill="none" xmlns="http://www.w3.org/2000/svg">
<path d="M11.9596 20.0771C11.0745 20.5881 9.94281 20.2848 9.43181 19.3998L1.98907 6.50857C1.47808 5.6235 1.78133 4.49177 2.66639 3.98077C3.55146 3.46978 4.6832 3.77302 5.19419 4.65809L12.6369 17.5493C13.1479 18.4344 12.8447 19.5661 11.9596 20.0771Z" stroke="#BDBDBD" stroke-width="1.5"/>
<path d="M19.2326 20.0771C18.3475 20.5881 17.2158 20.2848 16.7048 19.3998L9.26202 6.50857C8.75103 5.6235 9.05427 4.49177 9.93934 3.98077C10.8244 3.46978 11.9561 3.77302 12.4671 4.65809L19.9099 17.5493C20.4209 18.4344 20.1176 19.5661 19.2326 20.0771Z" stroke="#BDBDBD" stroke-width="1.5"/>
<path d="M21.4118 11.2534C20.5267 11.7644 19.395 11.4611 18.884 10.5761L16.5526 6.53787C16.0416 5.6528 16.3448 4.52106 17.2299 4.01007C18.1149 3.49907 19.2467 3.80232 19.7577 4.68739L22.0891 8.7256C22.6001 9.61067 22.2969 10.7424 21.4118 11.2534Z" stroke="#BDBDBD" stroke-width="1.5"/>
</svg>
